Coordinates
version=1
nRows=24
nColumns=24
inDegrees=yes

Units are S.I. units (second, meters, Newtons, ...)
Angles are in degrees.

endheader
time	pelvis_tilt	pelvis_list	pelvis_rotation	pelvis_tx	pelvis_ty	pelvis_tz	hip_flexion_r	hip_adduction_r	hip_rotation_r	knee_angle_r	ankle_angle_r	subtalar_angle_r	mtp_angle_r	hip_flexion_l	hip_adduction_l	hip_rotation_l	knee_angle_l	ankle_angle_l	subtalar_angle_l	mtp_angle_l	lumbar_extension	lumbar_bending	lumbar_rotation
      4.73000000	     33.37403911	     13.51125351	     13.29249420	     -0.18888826	      0.65523339	     -0.25148081	    -14.84888791	     -5.79466358	    -25.46616771	      0.05623988	      8.43550448	      9.18879483	      0.00000000	    -47.29178004	      2.13607113	      4.32258326	    -20.49025109	     23.33919555	     22.31097873	      0.00000000	    -61.05216039	      0.14940464	    -20.91483307
      4.73500000	     33.50679218	     13.36822512	     13.43491639	     -0.18253727	      0.65520984	     -0.25168543	    -14.91241442	     -5.59110880	    -25.24413333	     -0.98122770	      8.28400788	      9.23105265	      0.00000000	    -47.46973426	      1.67688542	      4.38470302	    -21.41741771	     22.63782393	     22.48703393	      0.00000000	    -60.99249233	      0.46914245	    -20.88814890
      4.74000000	     33.75339332	     13.16434633	     13.60471510	     -0.17612453	      0.65530925	     -0.25173615	    -15.10606954	     -5.23480751	    -24.76358171	     -2.00478989	      7.83452916	      8.50745014	      0.00000000	    -47.71081367	      1.06766452	      4.32640165	    -22.39700795	     21.88127704	     22.91969846	      0.00000000	    -61.04145266	      0.83790240	    -20.79294383
      4.74500000	     34.00705815	     12.93076378	     13.70581233	     -0.16970511	      0.65543040	     -0.25181020	    -15.26811720	     -4.88633972	    -24.25170499	     -3.10592324	      7.45401276	      7.98273195	      0.00000000	    -47.90202294	      0.50264876	      4.19854543	    -23.46226342	     20.97851737	     23.27108907	      0.00000000	    -61.08394815	      1.19795032	    -20.65336180
      4.75000000	     34.25350806	     12.66604587	     13.79603888	     -0.16327270	      0.65558393	     -0.25186485	    -15.39869720	     -4.51006870	    -23.67945041	     -4.25726476	      7.06491769	      7.36100063	      0.00000000	    -48.01635247	     -0.07285197	      4.03224704	    -24.62394439	     19.96797392	     23.63956294	      0.00000000	    -61.11369413	      1.57315660	    -20.51141732
      4.75500000	     34.49155245	     12.37567401	     13.86197551	     -0.15684303	      0.65576605	     -0.25189066	    -15.50191459	     -4.11389472	    -23.04415527	     -5.43792527	      6.69017388	      6.68590532	      0.00000000	    -48.04411010	     -0.64153906	      3.82134794	    -25.89691673	     18.83250419	     24.00576874	      0.00000000	    -61.13537518	      1.94240535	    -20.35184665
      4.76000000	     34.71635131	     12.07235341	     13.92702921	     -0.15042853	      0.65598005	     -0.25184951	    -15.58074961	     -3.69694153	    -22.35471216	     -6.63779836	      6.33960053	      5.93748743	      0.00000000	    -47.97493233	     -1.21987519	      3.56738307	    -27.28253032	     17.56085524	     24.36696705	      0.00000000	    -61.15605013	      2.30224109	    -20.18762787
      4.76500000	     34.92293057	     11.74677894	     13.96699353	     -0.14401582	      0.65620829	     -0.25175917	    -15.61808296	     -3.26403490	    -21.58101148	     -7.87243258	      6.05193633	      5.15893763	      0.00000000	    -47.81640633	     -1.79179694	      3.24653415	    -28.75466832	     16.15763171	     24.69158625	      0.00000000	    -61.16500324	      2.64216626	    -19.98460823
      4.77000000	     35.11040281	     11.40706125	     13.98400189	     -0.13761744	      0.65645227	     -0.25161510	    -15.62865786	     -2.81792924	    -20.79903760	     -9.11044774	      5.84328637	      4.38584890	      0.00000000	    -47.55915236	     -2.34880263	      2.89726755	    -30.32536480	     14.60526199	     24.96404426	      0.00000000	    -61.16082187	      2.96163660	    -19.77121054
      4.77500000	     35.28140431	     11.05697014	     13.98311980	     -0.13124219	      0.65670006	     -0.25141850	    -15.62162629	     -2.35827790	    -20.02123656	    -10.34285323	      5.73470197	      3.63001905	      0.00000000	    -47.20664333	     -2.89404065	      2.51962053	    -31.99021482	     12.92185017	     25.15463058	      0.00000000	    -61.14897214	      3.26307906	    -19.55703767
      4.78000000	     35.42760918	     10.69839410	     13.96358016	     -0.12488396	      0.65694773	     -0.25118573	    -15.59604154	     -1.89183055	    -19.24801770	    -11.55933151	      5.73922021	      2.92231885	      0.00000000	    -46.75689868	     -3.42152818	      2.11661088	    -33.73190250	     11.11894502	     25.23243219	      0.00000000	    -61.11885197	      3.53997803	    -19.32751821
      4.78500000	     35.53351728	     10.32679570	     13.91951124	     -0.11852127	      0.65717575	     -0.25092710	    -15.54429062	     -1.41921391	    -18.46430870	    -12.74302666	      5.90248031	      2.30425243	      0.00000000	    -46.19864108	     -3.92035096	      1.71312935	    -35.54171226	      9.21738841	     25.18500993	      0.00000000	    -61.04662351	      3.79379803	    -19.06160703
      4.79000000	     35.65286414	      9.98334266	     13.91450896	     -0.11221914	      0.65743747	     -0.25064230	    -15.55607287	     -0.94688618	    -17.84726231	    -13.86347717	      6.16359434	      1.80340152	      0.00000000	    -45.58496575	     -4.43794258	      1.32411817	    -37.40725397	      7.23867510	     24.97062310	      0.00000000	    -61.00664248	      4.04778673	    -18.85497476
      4.79500000	     35.73857635	      9.63961389	     13.89493581	     -0.10594255	      0.65768795	     -0.25034912	    -15.56739065	     -0.48012596	    -17.28253698	    -14.92048087	      6.55081485	      1.37547535	      0.00000000	    -44.87838391	     -4.92931831	      0.93286479	    -39.31144213	      5.22482303	     24.59559080	      0.00000000	    -60.93736850	      4.27892987	    -18.63897140
      4.80000000	     35.90296090	      9.31691984	     13.94951341	     -0.09969102	      0.65801869	     -0.25006058	    -15.75062551	      0.02408914	    -16.96288917	    -15.84824835	      6.99211480	      1.11992683	      0.00000000	    -44.21004610	     -5.49589199	      0.56936525	    -41.21112327	      3.19689787	     24.04790529	      0.00000000	    -60.94609009	      4.55475373	    -18.47744498
      4.80500000	     35.96405955	      8.99578844	     13.94225876	     -0.09352943	      0.65827329	     -0.24976488	    -15.83673178	      0.48386760	    -16.53295091	    -16.72824941	      7.59062980	      0.89029910	      0.00000000	    -43.36801665	     -5.95085028	      0.25056058	    -43.16520308	      1.24465091	     23.29303161	      0.00000000	    -60.87445811	      4.77831378	    -18.28403860
      4.81000000	     36.08058926	      8.67421910	     13.97238455	     -0.08737698	      0.65859589	     -0.24946415	    -16.06318397	      0.97815190	    -16.34307985	    -17.46880309	      8.19310896	      0.77916115	      0.00000000	    -42.56141222	     -6.47119886	     -0.11028893	    -45.07505281	     -0.62456268	     22.38430724	      0.00000000	    -60.85351907	      5.02122466	    -18.09448878
      4.81500000	     36.02682315	      8.39557864	     13.96229583	     -0.08131224	      0.65882065	     -0.24910665	    -16.11939861	      1.36597689	    -16.11887409	    -18.20215544	      9.00527805	      0.77894855	      0.00000000	    -41.51792201	     -6.85444338	     -0.39530840	    -47.01864431	     -2.33154198	     21.31522744	      0.00000000	    -60.69290453	      5.15131647	    -17.92732460
      4.82000000	     36.18090158	      8.06555801	     14.00601991	     -0.07526013	      0.65920774	     -0.24885174	    -16.51595582	      1.89936058	    -16.06409590	    -18.68433871	      9.63797541	      0.80649608	      0.00000000	    -40.69882224	     -7.38079428	     -0.70918324	    -48.86476689	     -3.83924760	     20.11568041	      0.00000000	    -60.71677405	      5.42882115	    -17.70343474
      4.82500000	     36.27366101	      7.78106931	     14.02660125	     -0.06929936	      0.65958076	     -0.24857563	    -16.88615094	      2.35602651	    -16.06113074	    -19.11150146	     10.37768021	      0.96297303	      0.00000000	    -39.78962288	     -7.81464841	     -0.97155969	    -50.68434075	     -5.11527462	     18.73887105	      0.00000000	    -60.70349241	      5.62814540	    -17.49690906
      4.83000000	     36.32225461	      7.51511486	     14.04076253	     -0.06341428	      0.65996177	     -0.24831394	    -17.25888816	      2.77753552	    -16.10946465	    -19.44615547	     11.14114987	      1.21277102	      0.00000000	    -38.81170988	     -8.19647736	     -1.18972764	    -52.46576880	     -6.12590224	     17.28896053	      0.00000000	    -60.66246814	      5.80300322	    -17.29675474
      4.83500000	     36.26706645	      7.30929774	     14.07823351	     -0.05759872	      0.66033450	     -0.24806492	    -17.57671644	      3.11630244	    -16.19964028	    -19.70590126	     11.98297998	      1.60657855	      0.00000000	    -37.69125584	     -8.48483379	     -1.28691529	    -54.21860433	     -6.87727660	     15.80614855	      0.00000000	    -60.53204869	      5.92228758	    -17.16022628
      4.84000000	     36.31065284	      7.06091062	     14.08853497	     -0.05178924	      0.66079821	     -0.24782241	    -18.06096087	      3.52964816	    -16.33092310	    -19.81431354	     12.68581667	      1.92815115	      0.00000000	    -36.70134885	     -8.81874485	     -1.45530399	    -55.85540399	     -7.33811543	     14.28923942	      0.00000000	    -60.49156623	      6.07036976	    -16.92857199
      4.84500000	     36.44464018	      6.79552900	     14.05686000	     -0.04591259	      0.66132728	     -0.24753638	    -18.71104333	      4.00214706	    -16.38475309	    -19.77832665	     13.34064396	      2.13249445	      0.00000000	    -35.86126602	     -9.16437749	     -1.66829302	    -57.35597408	     -7.40236672	     12.81760060	      0.00000000	    -60.51370221	      6.19725911	    -16.59794634
